<svg width="112" height="24" viewBox="0 0 112 24" fill="none" xmlns="http://www.w3.org/2000/svg">
<path d="M13.464 8.288C13.464 9.136 13.264 9.936 12.864 10.688C12.464 11.44 11.824 12.056 10.944 12.536C10.064 13 8.936 13.232 7.56 13.232H4.536V20H1.8V3.32H7.56C8.84 3.32 9.92 3.544 10.8 3.992C11.696 4.424 12.36 5.016 12.792 5.768C13.24 6.52 13.464 7.36 13.464 8.288ZM7.56 11C8.6 11 9.376 10.768 9.888 10.304C10.4 9.824 10.656 9.152 10.656 8.288C10.656 6.464 9.624 5.552 7.56 5.552H4.536V11H7.56ZM20.0094 17.792H25.6494V20H17.2734V3.32H20.0094V17.792ZM39.1935 16.592H32.2095L31.0095 20H28.1535L34.1295 3.296H37.2975L43.2735 20H40.3935L39.1935 16.592ZM38.4255 14.36L35.7135 6.608L32.9775 14.36H38.4255ZM60.7759 20H58.0399L49.8079 7.544V20H47.0719V3.296H49.8079L58.0399 15.728V3.296H60.7759V20ZM76.3448 3.32V5.552H71.9047V20H69.1687V5.552H64.7047V3.32H76.3448ZM89.5076 20L83.0516 12.536V20H80.3156V3.32H83.0516V10.928L89.5316 3.32H92.9636L85.7156 11.672L93.0836 20H89.5076ZM99.4151 3.32V13.952C99.4151 15.216 99.7431 16.168 100.399 16.808C101.071 17.448 101.999 17.768 103.183 17.768C104.383 17.768 105.311 17.448 105.967 16.808C106.639 16.168 106.975 15.216 106.975 13.952V3.32H109.711V13.904C109.711 15.264 109.415 16.416 108.823 17.36C108.231 18.304 107.439 19.008 106.447 19.472C105.455 19.936 104.359 20.168 103.159 20.168C101.959 20.168 100.863 19.936 99.8711 19.472C98.8951 19.008 98.1191 18.304 97.5431 17.36C96.9671 16.416 96.6791 15.264 96.6791 13.904V3.32H99.4151Z" fill="#156963"/>
</svg>
